# xmcd CD database file
#
# Track frame offsets:
#	150
#	9712
#	29847
#	34100
#	53735
#	86082
#	107550
#	148632
#	170230
#
# Disc length: 2564 seconds
#
# Revision: 0
# Processed by: cddbd v1.4PL0 Copyright (c) Steve Scherf et al.
# Submitted via: CDex 1.50
#
DISCID=7b0a0209
DTITLE=Kalman Olah, Peter Lehel - Hungarian Rhapsody CD 2
DYEAR=2002
DGENRE=Jazz
TTITLE0=Prelude
TTITLE1=Gloomy Sunday
TTITLE2=Bartók Sketch
TTITLE3=Eddie Who?
TTITLE4=J.E.Song - Remember My Father
TTITLE5=Around the World
TTITLE6=Transsylvania
TTITLE7=Deadly Spring
TTITLE8=Gloomy Sunday
EXTD=YEAR: 2002
EXTT0=
EXTT1=
EXTT2=
EXTT3=
EXTT4=
EXTT5=
EXTT6=
EXTT7=
EXTT8=
PLAYORDER=
